inDegrees=no
num_controls=7
num_derivatives=13
num_iterations=202
num_multipliers=7
num_parameters=0
num_slacks=7
num_states=26
objective=5.794733
objective_accelerations=0.665040
objective_balance=0.022143
objective_effort=0.480599
objective_height=4.555950
objective_ligament=0.071001
solver_duration=1699.553928
status=Solve_Succeeded
success=true
DataType=double
version=3
OpenSimVersion=4.4-2022-07-23-0e9fedc
endheader
time	/jointset/ground_pelvis/pelvis_tilt/value	/jointset/ground_pelvis/pelvis_tx/value	/jointset/ground_pelvis/pelvis_ty/value	/jointset/hip_r/hip_flexion_r/value	/jointset/hip_r/hip_adduction_r/value	/jointset/hip_r/hip_rotation_r/value	/jointset/back/lumbar_extension/value	/jointset/patellofemoral_r/patellar_flexion_r/value	/jointset/knee_r/knee_flexion_r/value	/jointset/knee_r/knee_adduction_r/value	/jointset/knee_r/knee_rotation_r/value	/jointset/ankle_r/ankle_angle_r/value	/jointset/subtalar_r/subtalar_angle_r/value	/jointset/ground_pelvis/pelvis_tilt/speed	/jointset/ground_pelvis/pelvis_tx/speed	/jointset/ground_pelvis/pelvis_ty/speed	/jointset/hip_r/hip_flexion_r/speed	/jointset/hip_r/hip_adduction_r/speed	/jointset/hip_r/hip_rotation_r/speed	/jointset/back/lumbar_extension/speed	/jointset/patellofemoral_r/patellar_flexion_r/speed	/jointset/knee_r/knee_flexion_r/speed	/jointset/knee_r/knee_adduction_r/speed	/jointset/knee_r/knee_rotation_r/speed	/jointset/ankle_r/ankle_angle_r/speed	/jointset/subtalar_r/subtalar_angle_r/speed	/forceset/tau_hip_flexion_r	/forceset/tau_hip_adduction_r	/forceset/tau_hip_rotation_r	/forceset/tau_knee_flexion_r	/forceset/tau_ankle_angle_r	/forceset/tau_subtalar_angle_r	/forceset/tau_lumbar_extension	lambda_cid13_p0	lambda_cid14_p0	lambda_cid14_p1	lambda_cid14_p2	lambda_cid14_p3	lambda_cid14_p4	lambda_cid14_p5	/jointset/ground_pelvis/pelvis_tilt/accel	/jointset/ground_pelvis/pelvis_tx/accel	/jointset/ground_pelvis/pelvis_ty/accel	/jointset/hip_r/hip_flexion_r/accel	/jointset/hip_r/hip_adduction_r/accel	/jointset/hip_r/hip_rotation_r/accel	/jointset/back/lumbar_extension/accel	/jointset/patellofemoral_r/patellar_flexion_r/accel	/jointset/knee_r/knee_flexion_r/accel	/jointset/knee_r/knee_adduction_r/accel	/jointset/knee_r/knee_rotation_r/accel	/jointset/ankle_r/ankle_angle_r/accel	/jointset/subtalar_r/subtalar_angle_r/accel	gamma_cid13_p0	gamma_cid14_p0	gamma_cid14_p1	gamma_cid14_p2	gamma_cid14_p3	gamma_cid14_p4	gamma_cid14_p5
1.5	-0.1015358131212858	0.02920940814048242	0.8083689195733791	0.8536842122219013	-0.2229799216278343	-0.1273367721779337	-0.6306054685970326	0.9680626697324412	0.9680626697324347	-0.0568136500809528	0.174532548973186	0.3098986594445617	0.1448110174738807	0.5113234270863558	0.2305513129393882	0.5458113588540892	-2.133906603030459	0.02552927251700466	-0.2010368423394049	0.8014346768252211	-2.038780754352893	-2.038780754352898	0.4544001748151997	-3.903918146440524e-05	-0.5257380573550455	-0.1740673707389344	-0.1700166922517423	0.0003909846591764367	0.01797674408657626	-0.3026542737108976	0.007397261502170502	0.004060957663865572	0.2191197804811905	-7.818836706496349	-39.10327546474925	-3.948386453239101	-0.2446173458466151	-2.877406753119332	-628.0050005909023	67.06865588798161	0.2032540200009706	0.6071033045370854	-0.5510734484008066	-1.042796919616278	-0.2101740379429912	-0.5842917147376747	1.880085729493042	-1.389162422490873	-1.389162422490888	0.474071570035434	-0.02293463427800372	-0.7209201840193823	-0.441770291686035	2.009653437823108e-07	1.94609467105983e-07	-9.128554102332433e-07	1.927334817330412e-06	-1.601537607670539e-08	3.513866587503362e-07	-6.013252642363148e-07
1.51	-0.09641267723059359	0.03154497088376122	0.8137983874863161	0.8322950507188376	-0.2227362126885311	-0.1293759597404463	-0.6224988426074861	0.9476079923400854	0.9476079923400811	-0.05224399793008257	0.1745323709651462	0.3046056636523823	0.1430469276147271	0.5132290211218999	0.2365265209354021	0.539964218498146	-2.143637671669242	0.02319956542359706	-0.2068018855520865	0.8197714508510336	-2.051868786500335	-2.051868786500349	0.4595030520196485	-9.803312523496324e-07	-0.5327805689777391	-0.1787185266920218	-0.1625681076917872	-0.0002891829377889003	0.01781512171206585	-0.2980781581392514	0.008612683333579872	0.003074661678235948	0.2122158591969983	-8.846801802971477	-38.44031198083277	-4.151354081462775	-0.3371061187302969	-2.744893345401874	-622.7015015552875	66.2360243434378	0.1730163620657991	0.5875296057986873	-0.6191671336357099	-0.8950389124612228	-0.2461740331388724	-0.5724947885350316	1.792612704189004	-1.225769742596389	-1.225769742597556	0.5241566579557377	0.01677219423114	-0.6837887144869015	-0.4719849512900642	1.89683782087337e-07	1.628117948951654e-07	-1.090115469317215e-06	1.646678095192428e-06	1.856502243263114e-08	3.438082060584639e-07	-7.519444736079029e-07
1.52	-0.09127272454619872	0.03393924571873323	0.8191658574348046	0.8108172231140958	-0.2225161618177818	-0.1314727745678863	-0.6142124209846689	0.9270310053999105	0.9270310053999077	-0.04762416483470693	0.1745324927555053	0.2992446683313574	0.1412372868552087	0.5146867858268296	0.2422937312780283	0.5334117659644194	-2.151639823366101	0.02079765880622079	-0.2125622953248336	0.8373938034793905	-2.063242663916797	-2.063242663916818	0.4644363637163428	2.092050137322864e-05	-0.5393379631241354	-0.1831775508119083	-0.1551195231318322	-0.0009693505347555733	0.01765349933755861	-0.2935020425676047	0.009828105164988823	0.002088365692603951	0.2053119379128061	-9.925140015739137	-37.77264832858702	-4.345570545310835	-0.4400464309924659	-2.639164896388073	-617.3474199951302	65.47394011231286	0.1136881538780949	0.5655037738595309	-0.6921358839574857	-0.6970135312314063	-0.2246139427367313	-0.5833650267507949	1.737201450001894	-1.046331476294726	-1.046331476294739	0.4401584684845283	-0.02616623779527759	-0.6238966887599522	-0.4033439250458548	1.798653813232402e-07	1.437349340026307e-07	-1.159115040189574e-06	1.475048282619663e-06	3.514503346048697e-08	3.389567466156176e-07	-8.277010646035511e-07
1.53	-0.08612056769401702	0.03639013452356533	0.8244643381927399	0.7892681406888236	-0.2223203468307856	-0.1336273135233064	-0.6057534265552481	0.9063489306307242	0.9063489306307223	-0.04295621187773881	0.1745325815343346	0.2938206857130553	0.1393843089173731	0.5156604570709314	0.2478467704363542	0.5261741214411204	-2.15788051887108	0.01835789072965369	-0.2183567826353351	0.8542704177436586	-2.072878981409696	-2.072878981409696	0.4691105509470571	-3.354951664695224e-06	-0.545366015320025	-0.1873751695414551	-0.1473988800030605	-0.002246005265797616	0.01758721301007461	-0.289691035038305	0.01178636581609786	0.001122342773315758	0.1982323161020015	-11.00907655910232	-36.88403537076248	-4.494043733330086	-0.5482824564602159	-2.703674961929387	-612.3138653109908	64.96287663483676	0.07659944165551974	0.544621346378053	-0.7560511724210927	-0.5431589429680616	-0.2546502508352533	-0.5789105023149363	1.642691715495824	-0.8783190446878963	-0.8783190446845585	0.4743584354376045	0.009653327419998898	-0.5783349483075261	-0.4215473496849321	1.716015890482003e-07	1.381739351357716e-07	-1.113087842337095e-06	1.419259561459942e-06	3.259963278926975e-08	3.370027174998615e-07	-8.239161235747639e-07
1.54	-0.08096119556299806	0.03889543719189251	0.8296871480182612	0.7676655390319346	-0.2221491279266989	-0.1358400813356545	-0.5971297059230135	0.8855792852548293	0.8855792852548278	-0.03824285513144911	0.174532469863935	0.2883392074801334	0.1374906394916869	0.5161298415942033	0.2531765039770439	0.5182775794816269	-2.162343669689534	0.0158784422243446	-0.224208066710441	0.8703390440421872	-2.080756785258608	-2.080756785258584	0.4735171215806807	-1.916934558056509e-05	-0.5508370860480771	-0.1913158483820351	-0.1396782368742887	-0.00352265999683988	0.0175209266825901	-0.285880027509005	0.01374462646720691	0.000156319854027275	0.1911526942911967	-12.09215725393294	-35.99452473666106	-4.638994966547974	-0.6609238075083184	-2.780091161290903	-607.2707349964734	64.51565604364045	0.01283080971209069	0.520842650332299	-0.8239153711963926	-0.341504593926435	-0.2325500284851307	-0.5947243796716903	1.575603856854007	-0.6946287474969736	-0.6946287474969715	0.3866351490664002	-0.0244740259708567	-0.5125003951924583	-0.3519559472524741	1.680795011225526e-07	1.276726370499713e-07	-1.173825933876168e-06	1.314328557066882e-06	4.428878206723875e-08	3.343759786379464e-07	-8.742170586863633e-07
1.55	-0.07579967843088201	0.04145283015556239	0.8348277648140349	0.7460273173912326	-0.2220028125547821	-0.1381120958858436	-0.5883494665345684	0.8647397325950451	0.8647397325950472	-0.03348723066769273	0.1745324557165253	0.2828058529540441	0.1355590027612053	0.5160891888603277	0.2582553082807387	0.5097426701733275	-2.164991586319323	0.01338034036566414	-0.2301864076712472	0.8855568382293525	-2.086842527848426	-2.086842527848429	0.477572341850969	8.260110697432461e-06	-0.5557365792065937	-0.1949656958528811	-0.1320285909166609	-0.004708556915804806	0.01746466743439605	-0.2821565498921724	0.01558761732308834	-0.001010885644890655	0.1841148373499471	-13.17082960356569	-35.18111422058089	-4.899597095829794	-0.7380471877374545	-2.743903706934577	-602.5295262659705	63.89066037456671	-0.02516476852221085	0.4943998457452524	-0.8836793187617399	-0.1800622327544586	-0.2590367052366389	-0.5978662054448569	1.472067887044808	-0.518898407063114	-0.5188984070671183	0.4094614920124096	0.01530909461138465	-0.4640341770022458	-0.3647325773806508	1.700206812516393e-07	1.114792550814782e-07	-1.357576206670716e-06	1.152777095904978e-06	7.237860846057355e-08	3.309741611554569e-07	-9.868343293510133e-07
1.56	-0.07064109811682123	0.0440596112673407	0.8398799523951025	0.7243718911771835	-0.2218815974895879	-0.1404435892958727	-0.5794216090667721	0.8438486522308943	0.8438486522309007	-0.02869215479603393	0.1745325073963121	0.2772264314162055	0.1335922208699392	0.515542477983057	0.2630541335987275	0.5005917365404298	-2.165784584359088	0.01085838087989856	-0.2361038386784447	0.899862659912397	-2.091062326131799	-2.091062326131829	0.481407403161352	-6.003905654485807e-06	-0.5600504883979501	-0.1983448805389265	-0.1243789449590318	-0.005894453834769753	0.01740840818621089	-0.2784330722753386	0.01743060817896974	-0.002178091143808779	0.1770769804086986	-14.24022590131588	-34.367441565036	-5.156878134060249	-0.8194415528065028	-2.715628076678178	-597.7915747712494	63.32519531031986	-0.08838081896695514	0.4648468531910802	-0.947120236116103	0.02947912407823322	-0.2373215539021549	-0.5825423889499594	1.39320935602986	-0.3214398862080197	-0.321439886208021	0.3426033570853473	-0.03281272049683377	-0.3953836017604639	-0.2978233902923371	1.717070202530704e-07	9.473358378932269e-08	-1.54812032677879e-06	9.685194057723279e-07	1.010825819139221e-07	3.252608418304134e-07	-1.088672754918799e-06
